<svg width="600" height="188" viewBox="0 0 600 188" fill="none" xmlns="http://www.w3.org/2000/svg">
<mask id="path-1-inside-1_96_6" fill="white">
<path d="M0 138.889H600V187.5H0V138.889Z"/>
</mask>
<path d="M0 138.889V140.972H600V138.889V136.805H0V138.889ZM600 187.5V185.416H0V187.5V189.583H600V187.5Z" fill="#302F2C" mask="url(#path-1-inside-1_96_6)"/>
<path d="M9.42013 173.693H2.8742V152.481H9.71014C11.7678 152.481 13.5286 152.906 14.9925 153.755C16.4563 154.598 17.5784 155.809 18.3586 157.391C19.1389 158.965 19.529 160.85 19.529 163.046C19.529 165.255 19.1354 167.158 18.3483 168.753C17.5611 170.341 16.4149 171.563 14.9096 172.419C13.4043 173.269 11.5745 173.693 9.42013 173.693ZM5.44285 171.415H9.25441C11.0083 171.415 12.4618 171.076 13.6149 170.4C14.768 169.723 15.6277 168.76 16.1939 167.51C16.7601 166.26 17.0432 164.772 17.0432 163.046C17.0432 161.333 16.7636 159.859 16.2043 158.623C15.645 157.38 14.8095 156.427 13.6978 155.765C12.5861 155.095 11.2016 154.76 9.54442 154.76H5.44285V171.415ZM54.7544 173.693V152.481H67.5563V154.76H57.3231V161.927H66.8934V164.206H57.3231V171.415H67.722V173.693H54.7544ZM114.703 157.784C114.579 156.735 114.075 155.92 113.191 155.34C112.307 154.76 111.223 154.47 109.939 154.47C109 154.47 108.178 154.622 107.474 154.926C106.776 155.229 106.231 155.647 105.837 156.179C105.45 156.711 105.257 157.315 105.257 157.991C105.257 158.558 105.392 159.044 105.661 159.452C105.937 159.852 106.289 160.187 106.717 160.456C107.146 160.719 107.594 160.936 108.064 161.109C108.533 161.275 108.965 161.409 109.359 161.513L111.513 162.093C112.065 162.238 112.68 162.438 113.357 162.694C114.04 162.949 114.693 163.298 115.314 163.74C115.943 164.175 116.46 164.734 116.868 165.418C117.275 166.101 117.479 166.94 117.479 167.935C117.479 169.081 117.179 170.117 116.578 171.042C115.984 171.967 115.114 172.702 113.968 173.248C112.828 173.793 111.444 174.066 109.814 174.066C108.295 174.066 106.98 173.821 105.868 173.331C104.763 172.841 103.893 172.157 103.258 171.28C102.63 170.403 102.274 169.385 102.191 168.225H104.843C104.912 169.026 105.181 169.688 105.651 170.213C106.127 170.731 106.728 171.118 107.453 171.373C108.185 171.622 108.972 171.746 109.814 171.746C110.795 171.746 111.675 171.587 112.456 171.27C113.236 170.945 113.854 170.496 114.31 169.923C114.765 169.343 114.993 168.667 114.993 167.893C114.993 167.189 114.796 166.616 114.403 166.174C114.009 165.732 113.491 165.373 112.849 165.097C112.207 164.82 111.513 164.579 110.767 164.372L108.157 163.626C106.5 163.149 105.188 162.469 104.221 161.585C103.255 160.702 102.771 159.545 102.771 158.116C102.771 156.928 103.092 155.892 103.735 155.008C104.384 154.118 105.254 153.427 106.345 152.937C107.442 152.44 108.668 152.191 110.022 152.191C111.389 152.191 112.604 152.436 113.667 152.927C114.731 153.41 115.573 154.073 116.195 154.915C116.823 155.758 117.154 156.714 117.189 157.784H114.703ZM155.187 152.481V173.693H152.619V152.481H155.187ZM205.755 159.11C205.527 158.413 205.227 157.788 204.854 157.235C204.488 156.676 204.049 156.2 203.538 155.806C203.034 155.412 202.461 155.112 201.819 154.905C201.177 154.698 200.473 154.594 199.706 154.594C198.449 154.594 197.307 154.919 196.278 155.568C195.249 156.217 194.431 157.173 193.823 158.437C193.215 159.7 192.912 161.251 192.912 163.087C192.912 164.924 193.219 166.474 193.833 167.738C194.448 169.001 195.28 169.958 196.33 170.607C197.379 171.256 198.56 171.58 199.872 171.58C201.087 171.58 202.157 171.321 203.083 170.804C204.015 170.279 204.74 169.54 205.258 168.587C205.783 167.627 206.045 166.498 206.045 165.2L206.832 165.366H200.452V163.087H208.531V165.366C208.531 167.113 208.158 168.632 207.412 169.923C206.673 171.214 205.651 172.216 204.346 172.927C203.048 173.631 201.557 173.983 199.872 173.983C197.994 173.983 196.343 173.541 194.921 172.658C193.505 171.774 192.401 170.517 191.607 168.887C190.819 167.258 190.426 165.325 190.426 163.087C190.426 161.409 190.65 159.901 191.099 158.561C191.555 157.215 192.197 156.068 193.026 155.122C193.854 154.176 194.835 153.451 195.967 152.947C197.099 152.443 198.346 152.191 199.706 152.191C200.825 152.191 201.867 152.36 202.834 152.699C203.808 153.03 204.674 153.503 205.434 154.118C206.2 154.725 206.839 155.454 207.35 156.303C207.861 157.146 208.213 158.081 208.406 159.11H205.755ZM260.667 152.481V173.693H258.181L246.623 157.039H246.415V173.693H243.847V152.481H246.332L257.933 169.177H258.14V152.481H260.667ZM347.444 157.784C347.32 156.735 346.816 155.92 345.932 155.34C345.048 154.76 343.964 154.47 342.68 154.47C341.74 154.47 340.919 154.622 340.214 154.926C339.517 155.229 338.972 155.647 338.578 156.179C338.191 156.711 337.998 157.315 337.998 157.991C337.998 158.558 338.133 159.044 338.402 159.452C338.678 159.852 339.03 160.187 339.458 160.456C339.886 160.719 340.335 160.936 340.805 161.109C341.274 161.275 341.706 161.409 342.1 161.513L344.254 162.093C344.806 162.238 345.421 162.438 346.098 162.694C346.781 162.949 347.434 163.298 348.055 163.74C348.683 164.175 349.201 164.734 349.609 165.418C350.016 166.101 350.22 166.94 350.22 167.935C350.22 169.081 349.919 170.117 349.319 171.042C348.725 171.967 347.855 172.702 346.709 173.248C345.569 173.793 344.185 174.066 342.555 174.066C341.036 174.066 339.721 173.821 338.609 173.331C337.504 172.841 336.634 172.157 335.999 171.28C335.371 170.403 335.015 169.385 334.932 168.225H337.584C337.653 169.026 337.922 169.688 338.392 170.213C338.868 170.731 339.469 171.118 340.194 171.373C340.926 171.622 341.713 171.746 342.555 171.746C343.536 171.746 344.416 171.587 345.196 171.27C345.977 170.945 346.595 170.496 347.05 169.923C347.506 169.343 347.734 168.667 347.734 167.893C347.734 167.189 347.537 166.616 347.144 166.174C346.75 165.732 346.232 165.373 345.59 165.097C344.948 164.82 344.254 164.579 343.508 164.372L340.898 163.626C339.241 163.149 337.929 162.469 336.962 161.585C335.996 160.702 335.512 159.545 335.512 158.116C335.512 156.928 335.833 155.892 336.475 155.008C337.124 154.118 337.995 153.427 339.086 152.937C340.183 152.44 341.409 152.191 342.762 152.191C344.13 152.191 345.345 152.436 346.408 152.927C347.472 153.41 348.314 154.073 348.935 154.915C349.564 155.758 349.895 156.714 349.93 157.784H347.444ZM384.2 154.76V152.481H400.109V154.76H393.439V173.693H390.87V154.76H384.2ZM448.91 152.481H451.479V166.526C451.479 167.976 451.137 169.271 450.453 170.41C449.777 171.542 448.82 172.437 447.584 173.093C446.348 173.742 444.898 174.066 443.234 174.066C441.57 174.066 440.12 173.742 438.884 173.093C437.648 172.437 436.688 171.542 436.005 170.41C435.328 169.271 434.99 167.976 434.99 166.526V152.481H437.558V166.319C437.558 167.355 437.786 168.276 438.242 169.084C438.698 169.885 439.347 170.517 440.189 170.98C441.039 171.435 442.054 171.663 443.234 171.663C444.415 171.663 445.43 171.435 446.279 170.98C447.129 170.517 447.778 169.885 448.227 169.084C448.682 168.276 448.91 167.355 448.91 166.319V152.481ZM494.071 173.693H487.525V152.481H494.361C496.419 152.481 498.18 152.906 499.643 153.755C501.107 154.598 502.229 155.809 503.01 157.391C503.79 158.965 504.18 160.85 504.18 163.046C504.18 165.255 503.786 167.158 502.999 168.753C502.212 170.341 501.066 171.563 499.561 172.419C498.055 173.269 496.225 173.693 494.071 173.693ZM490.094 171.415H493.905C495.659 171.415 497.113 171.076 498.266 170.4C499.419 169.723 500.279 168.76 500.845 167.51C501.411 166.26 501.694 164.772 501.694 163.046C501.694 161.333 501.414 159.859 500.855 158.623C500.296 157.38 499.46 156.427 498.349 155.765C497.237 155.095 495.853 154.76 494.195 154.76H490.094V171.415ZM541.974 152.481V173.693H539.405V152.481H541.974ZM595.939 163.087C595.939 165.325 595.535 167.258 594.727 168.887C593.919 170.517 592.811 171.774 591.402 172.658C589.993 173.541 588.385 173.983 586.575 173.983C584.766 173.983 583.157 173.541 581.749 172.658C580.34 171.774 579.232 170.517 578.424 168.887C577.616 167.258 577.212 165.325 577.212 163.087C577.212 160.85 577.616 158.917 578.424 157.287C579.232 155.658 580.34 154.401 581.749 153.517C583.157 152.633 584.766 152.191 586.575 152.191C588.385 152.191 589.993 152.633 591.402 153.517C592.811 154.401 593.919 155.658 594.727 157.287C595.535 158.917 595.939 160.85 595.939 163.087ZM593.453 163.087C593.453 161.251 593.146 159.7 592.531 158.437C591.923 157.173 591.098 156.217 590.056 155.568C589.02 154.919 587.86 154.594 586.575 154.594C585.291 154.594 584.128 154.919 583.085 155.568C582.049 156.217 581.224 157.173 580.61 158.437C580.002 159.7 579.698 161.251 579.698 163.087C579.698 164.924 580.002 166.474 580.61 167.738C581.224 169.001 582.049 169.958 583.085 170.607C584.128 171.256 585.291 171.58 586.575 171.58C587.86 171.58 589.02 171.256 590.056 170.607C591.098 169.958 591.923 169.001 592.531 167.738C593.146 166.474 593.453 164.924 593.453 163.087Z" fill="#302F2C"/>
<path d="M200.098 4.58828C191.431 1.52942 180.897 0 168.496 0H89.926L110.927 22.4668H166.254C173.277 22.4668 178.507 23.6798 181.943 26.1058C185.529 28.5317 187.322 31.8543 187.322 36.0734C187.322 40.5035 185.529 43.9315 181.943 46.3575C180.228 47.5682 178.067 48.4768 175.458 49.0833C172.84 49.6921 169.772 49.9965 166.254 49.9965H136.689L193.854 111.09H217.897L233.219 111.068L192.086 66.927C203.229 64.4824 211.652 60.421 217.356 54.743C222.657 49.5972 225.608 43.829 226.207 37.4385V32.3958C225.708 26.8697 223.58 21.8196 219.821 17.2456C215.488 11.8663 208.914 7.64713 200.098 4.58828Z" fill="#302F2C"/>
<path d="M242.864 0.0217043L242.865 111.068L281.191 111.09V42.582L345.292 111.09L384.657 111.09L281.191 0.0217208L242.864 0.0217043Z" fill="#302F2C"/>
<path fill-rule="evenodd" clip-rule="evenodd" d="M139.441 69.1809L75.5387 0.890124C70.2625 0.325469 64.7319 0.0431455 58.9467 0.0431455L0.000244141 0.0217043V51.0344L55.9721 111.111H58.9467C62.8738 111.111 66.6858 110.979 70.3826 110.714C82.1581 109.87 92.7651 107.682 102.204 104.15C114.755 99.5086 124.393 92.969 131.117 84.5308C134.973 79.7961 137.748 74.6794 139.441 69.1809ZM38.3266 23.1428H56.4812C70.975 23.1428 82.2562 25.9907 90.3249 31.6865C98.3936 37.3822 102.428 45.3458 102.428 55.5772C102.428 65.8085 98.3936 73.7193 90.3249 79.3097C82.2562 84.9 70.975 87.6951 56.4812 87.6951H38.3266V23.1428Z" fill="#302F2C"/>
<path fill-rule="evenodd" clip-rule="evenodd" d="M483.334 69.1809L419.432 0.890124C414.155 0.325469 408.625 0.0431455 402.84 0.0431455L343.893 0.0217043V51.0344L399.865 111.111H402.84C406.767 111.111 410.579 110.979 414.276 110.714C426.051 109.87 436.658 107.682 446.097 104.15C458.648 99.5086 468.286 92.969 475.01 84.5308C478.866 79.7961 481.641 74.6794 483.334 69.1809ZM382.219 23.1428H400.374C414.868 23.1428 426.149 25.9907 434.218 31.6865C442.287 37.3822 446.321 45.3458 446.321 55.5772C446.321 65.8085 442.287 73.7193 434.218 79.3097C426.149 84.9 414.868 87.6951 400.374 87.6951H382.219V23.1428Z" fill="#302F2C"/>
<path d="M577.777 33.334L577.777 44.4451L566.666 44.4451H563.888L555.555 36.1118V44.4451V83.334H533.333V44.4451L511.11 44.4451L511.11 33.334H577.777Z" fill="#302F2C"/>
<circle cx="544.444" cy="55.5556" r="54.4444" stroke="#302F2C" stroke-width="2.22222"/>
</svg>
