<svg width="36" height="36" viewBox="0 0 36 36" fill="none" xmlns="http://www.w3.org/2000/svg">
<path d="M19.1957 18.9565H34.1413C34.3804 18.9565 34.5 18.9565 34.5 19.1957V19.6739C34.5 19.7935 34.5 19.913 34.2609 19.913C27.2065 21.8261 21.7065 27.2065 19.913 34.2609L19.4348 34.5H19.0761C18.9565 34.5 18.837 34.3804 18.837 34.1413V19.1957C18.837 19.0761 18.837 18.9565 19.0761 18.9565H19.1957ZM19.1957 1.5H19.6739L19.913 1.73913C21.8261 8.79348 27.2065 14.2935 34.2609 16.087L34.5 16.4457V16.8043C34.5 16.9239 34.3804 17.163 34.1413 17.163H19.1957L18.9565 16.8043V1.8587C18.9565 1.61957 18.9565 1.5 19.1957 1.5ZM16.4457 1.5H16.8043C16.9239 1.5 17.0435 1.61957 17.0435 1.8587V16.8043C17.0435 16.9239 17.0435 17.163 16.8043 17.163H1.8587C1.61957 17.163 1.5 16.9239 1.5 16.8043V16.3261C1.5 16.2065 1.5 16.087 1.73913 16.087C8.79348 14.2935 14.2935 8.79348 16.087 1.73913L16.4457 1.5ZM1.8587 18.9565H16.8043C16.9239 18.9565 17.0435 18.9565 17.0435 19.1957V34.1413C17.0435 34.3804 17.0435 34.5 16.8043 34.5H16.3261C16.2065 34.5 16.087 34.5 16.087 34.2609C14.1739 27.3261 8.67391 21.7065 1.73913 19.913L1.5 19.5543V19.1957C1.5 19.0761 1.61957 18.9565 1.8587 18.9565Z" fill="#DDDBD1"/>
</svg>
