<svg width="36" height="36" viewBox="0 0 36 36" fill="none" xmlns="http://www.w3.org/2000/svg">
<path fill-rule="evenodd" clip-rule="evenodd" d="M29.6881 8.12224C30.9782 8.46884 31.9987 9.48939 32.3453 10.7795C32.9807 13.1287 33 18.0003 33 18.0003C33 18.0003 33 22.8912 32.3646 25.2211C32.018 26.5112 30.9974 27.5317 29.7073 27.8783C27.3774 28.5138 18 28.5138 18 28.5138C18 28.5138 8.62259 28.5138 6.29268 27.8783C5.00257 27.5317 3.98203 26.5112 3.63543 25.2211C3 22.8719 3 18.0003 3 18.0003C3 18.0003 3 13.1287 3.61617 10.7988C3.96277 9.50864 4.98331 8.4881 6.27343 8.14151C8.60334 7.50607 17.9807 7.48682 17.9807 7.48682C17.9807 7.48682 27.3582 7.48682 29.6881 8.12224ZM22.7754 18.0003L14.9961 22.5061V13.4945L22.7754 18.0003Z" fill="#DDDBD1"/>
</svg>
